<svg width="150" height="150" viewBox="0 0 150 150" fill="none" xmlns="http://www.w3.org/2000/svg">
<path d="M68.75 18.75V116.163L35.6688 83.0813C33.2281 80.6406 29.2719 80.6406 26.8313 83.0813C24.3906 85.5219 24.3906 89.4797 26.8313 91.9203L70.5813 135.67C73.0219 138.111 76.9797 138.111 79.4188 135.67L123.169 91.9203C124.389 90.7 125 89.1 125 87.5C125 85.9016 124.389 84.3016 123.169 83.0813C120.728 80.6406 116.77 80.6406 114.331 83.0813L81.25 116.163V18.75C81.25 15.3 78.4516 12.5 75 12.5C71.5484 12.5 68.75 15.2984 68.75 18.75Z" fill="#314F9C"/>
</svg>
