<svg width="70" height="70" viewBox="0 0 70 70" fill="none" xmlns="http://www.w3.org/2000/svg">
<path d="M69.043 35.1367C69.043 39.8945 68.9473 44.666 69.0703 49.4238C69.2754 57.8457 63.9844 64.3535 57.2441 67.2519C54.5371 68.414 51.6934 69.0293 48.7539 69.0293C39.5527 69.0429 30.3379 69.166 21.1367 68.9883C14.2051 68.8515 8.50391 65.9531 4.41602 60.2383C2.26953 57.2304 1.24414 53.8125 1.24414 50.1074C1.24414 40.3047 1.24414 30.5156 1.24414 20.7129C1.24414 12.7148 5.14062 7.12302 12.0586 3.4863C15.0664 1.91404 18.334 1.24411 21.7383 1.23044C30.666 1.23044 39.6074 1.17576 48.5351 1.25779C55.4668 1.31247 61.25 3.96482 65.5156 9.54294C67.8945 12.6601 69.043 16.2422 69.043 20.1797C69.043 25.1562 69.043 30.1465 69.043 35.1367ZM6.28906 35.1367C6.28906 40.1543 6.28906 45.1582 6.28906 50.1758C6.28906 52.4179 6.80859 54.5234 7.9707 56.4238C11.0195 61.414 15.627 63.8476 21.3418 63.9433C30.5156 64.0801 39.7031 63.998 48.8906 63.9707C51.1465 63.9707 53.334 63.5058 55.3711 62.5351C60.9219 59.8828 64.0254 55.6582 63.998 49.3144C63.9434 39.6074 63.9844 29.9004 63.9844 20.1933C63.9844 17.4453 63.2051 14.9297 61.5781 12.7148C58.4336 8.46287 54.0859 6.37107 48.8906 6.31638C39.7305 6.20701 30.5703 6.27536 21.4102 6.28904C19.4551 6.28904 17.5684 6.68552 15.7363 7.36912C10.7051 9.24216 6.0293 13.9863 6.24805 20.9726C6.41211 25.7031 6.28906 30.4199 6.28906 35.1367Z" fill="white"/>
<path d="M35.2188 49.6289C26.4004 49.6289 19.291 42.6015 19.2774 33.8515C19.2637 25.2382 26.4278 18.1836 35.1914 18.1836C43.9824 18.1699 51.1192 25.2109 51.1328 33.8925C51.1328 42.5605 44.0098 49.6152 35.2188 49.6289ZM35.2188 44.5703C41.2207 44.5703 46.0879 39.7714 46.0742 33.8652C46.0606 28.0136 41.1934 23.2285 35.2188 23.2285C29.2168 23.2285 24.3223 28 24.3223 33.8925C24.336 39.7988 29.2168 44.5839 35.2188 44.5703Z" fill="white"/>
<path d="M52.9785 13.3984C54.8242 13.3984 56.3281 14.9707 56.3281 16.8984C56.3144 18.8262 54.7968 20.3848 52.9511 20.3711C51.1328 20.3574 49.6425 18.7988 49.6425 16.9121C49.6289 14.9844 51.1328 13.3984 52.9785 13.3984Z" fill="white"/>
</svg>
