<svg width="70" height="70" viewBox="0 0 70 70" fill="none" xmlns="http://www.w3.org/2000/svg">
<path d="M0 9.91669V12.5895V57.4105V60.0834H70V57.4105V12.5895V9.91669H0ZM42.7292 35.658L36.3755 42.042C35.6032 42.7595 34.3945 42.7584 33.6548 42.0724L27.2697 35.658L27.3257 35.6032L4.25483 12.25H65.7603L42.6732 35.6044L42.7292 35.658ZM23.9447 35.6219L2.33333 56.4142V13.9102L23.9447 35.6219ZM25.5897 37.275L32.0332 43.7489C32.8603 44.52 33.922 44.9074 34.9883 44.9074C36.0652 44.9074 37.1467 44.5119 37.9995 43.7174L44.4115 37.275L65.688 57.75H4.30033L25.5897 37.275ZM46.0565 35.623L67.6667 13.909V56.4142L46.0565 35.623Z" fill="white"/>
</svg>
