<svg width="70" height="70" viewBox="0 0 70 70" fill="none" xmlns="http://www.w3.org/2000/svg">
<path d="M58.5308 41.3635C58.5308 39.045 58.2346 37.0227 57.6428 35.2959C57.0508 33.5693 56.2365 32.1387 55.2008 31.0041C54.1649 29.8695 52.944 29.0309 51.5382 28.4883C50.1321 27.9456 48.5905 27.6743 46.9134 27.6743C45.581 27.6743 44.4221 27.8346 43.4351 28.1553C42.449 28.4759 41.5979 28.8952 40.8826 29.4132C40.1673 29.9312 39.563 30.4861 39.0697 31.0781C38.5764 31.6701 38.1572 32.2127 37.8118 32.706V28.4143H27.7485C27.7978 29.2529 27.8225 30.8808 27.8225 33.298V42.4738C27.8225 42.4738 27.7978 47.9248 27.7485 58.8269H37.8118V41.8075C37.8118 41.3635 37.8366 40.9324 37.8859 40.5127C37.9353 40.0933 38.0338 39.7109 38.1818 39.366C38.5764 38.4778 39.1807 37.6395 39.9944 36.8498C40.8084 36.0608 41.9309 35.666 43.3615 35.666C45.1867 35.666 46.494 36.2948 47.2833 37.5527C48.0727 38.8104 48.4673 40.4756 48.4673 42.5476V58.8268H58.5308V41.3635ZM17.093 24.2706C18.8689 24.2706 20.2748 23.7526 21.3108 22.7167C22.3467 21.6808 22.84 20.4475 22.7907 19.0169C22.7907 17.537 22.285 16.2914 21.2738 15.2801C20.2625 14.2689 18.8936 13.7632 17.167 13.7632C15.4404 13.7632 14.0592 14.2689 13.0232 15.2801C11.9873 16.2914 11.4693 17.537 11.4693 19.0169C11.4693 20.4475 11.9626 21.6808 12.9492 22.7167C13.9358 23.7526 15.2924 24.2706 17.019 24.2706H17.093ZM22.1247 28.4144H12.0613V58.8268H22.1247V28.4144ZM67.928 0C68.4213 0 68.8407 0.160324 69.1859 0.480972C69.531 0.801621 69.704 1.2086 69.704 1.7019V68.2982C69.704 68.7915 69.5309 69.1981 69.1859 69.5191C68.8407 69.8398 68.4213 70 67.928 70H2.07186C1.57855 70 1.15924 69.8402 0.81393 69.5191C0.468616 69.1981 0.295959 68.7915 0.295959 68.2982V1.7019C0.295959 1.2086 0.468616 0.801621 0.81393 0.480972C1.15924 0.160324 1.57855 0 2.07186 0H67.928Z" fill="white"/>
</svg>
