<svg width="60" height="60" viewBox="0 0 60 60" fill="none" xmlns="http://www.w3.org/2000/svg">
<path d="M36 48.5077C35.7532 48.5091 35.5086 48.4618 35.2802 48.3685C35.0517 48.2752 34.844 48.1377 34.6688 47.9639C34.493 47.7896 34.3535 47.5822 34.2583 47.3538C34.1631 47.1253 34.1141 46.8802 34.1141 46.6327C34.1141 46.3851 34.1631 46.1401 34.2583 45.9116C34.3535 45.6831 34.493 45.4757 34.6688 45.3014L50.2313 29.7577L34.6688 14.2139C34.3157 13.8609 34.1173 13.382 34.1173 12.8827C34.1173 12.3834 34.3157 11.9045 34.6688 11.5514C35.0218 11.1984 35.5007 11 36 11C36.4993 11 36.9782 11.1984 37.3313 11.5514L54.2063 28.4264C54.382 28.6007 54.5215 28.8081 54.6167 29.0366C54.7119 29.2651 54.7609 29.5101 54.7609 29.7577C54.7609 30.0052 54.7119 30.2503 54.6167 30.4788C54.5215 30.7072 54.382 30.9146 54.2063 31.0889L37.3313 47.9639C37.1561 48.1377 36.9483 48.2752 36.7198 48.3685C36.4914 48.4618 36.2468 48.5091 36 48.5077Z" fill="black"/>
<path d="M52.875 31.6326H7.875C7.37772 31.6326 6.90081 31.435 6.54917 31.0834C6.19754 30.7318 6 30.2548 6 29.7576C6 29.2603 6.19754 28.7834 6.54917 28.4317C6.90081 28.0801 7.37772 27.8826 7.875 27.8826H52.875C53.3723 27.8826 53.8492 28.0801 54.2008 28.4317C54.5525 28.7834 54.75 29.2603 54.75 29.7576C54.75 30.2548 54.5525 30.7318 54.2008 31.0834C53.8492 31.435 53.3723 31.6326 52.875 31.6326Z" fill="black"/>
</svg>
