<svg width="48" height="48" viewBox="0 0 48 48" fill="none" xmlns="http://www.w3.org/2000/svg">
<path d="M8.5 6C8.10219 6.00004 7.72068 6.15809 7.43938 6.43938C7.15809 6.72068 7.00004 7.10219 7 7.5V40.5C7.00004 40.8978 7.15809 41.2793 7.43938 41.5606C7.72068 41.8419 8.10219 42 8.5 42H23.5C23.8978 42 24.2793 41.8419 24.5606 41.5606C24.8419 41.2793 25 40.8978 25 40.5V35.2168C26.1038 39.0904 29.5327 42 33.75 42C38.8409 42 43 37.8409 43 32.75C43 28.5327 40.0904 25.1038 36.2168 24C40.0904 22.8962 43 19.4673 43 15.25C43 10.1591 38.8409 6 33.75 6C29.5327 6 26.1038 8.90957 25 12.7832V7.5C25 7.10219 24.8419 6.72068 24.5606 6.43938C24.2793 6.15809 23.8978 6.00004 23.5 6H8.5ZM10 9H22V39H10V9ZM33.75 9C37.2195 9 40 11.7805 40 15.25C40 18.7195 37.2195 21.5 33.75 21.5C30.2805 21.5 27.5 18.7195 27.5 15.25C27.5 11.7805 30.2805 9 33.75 9ZM25 17.7168C25.8751 20.788 28.212 23.1249 31.2832 24C28.212 24.8751 25.8751 27.212 25 30.2832V17.7168ZM33.75 26.5C37.2195 26.5 40 29.2805 40 32.75C40 36.2195 37.2195 39 33.75 39C30.2805 39 27.5 36.2195 27.5 32.75C27.5 29.2805 30.2805 26.5 33.75 26.5Z" fill="white"/>
</svg>
